<svg xmlns="http://www.w3.org/2000/svg" viewBox="0 0 360 320"><rect width="360" height="320" rx="28" fill="#fff3d9"/><path d="M100 118c-25-37 19-68 48-39 14-43 75-32 71 13 42-8 58 49 21 69H104c-25-7-28-28-4-43z" fill="#fffdf7" stroke="#5a1932" stroke-opacity=".18" stroke-width="6"/><rect x="103" y="152" width="155" height="70" rx="14" fill="#b95e5d"/><path d="M119 224h123l-18 54h-86z" fill="#5a1932"/><path d="M270 174c32-3 46 14 42 39-6 33-45 37-61 9" fill="none" stroke="#b95e5d" stroke-width="12"/><path d="M87 70l35 35m151-25l-27 32M69 217l31-17" stroke="#c99735" stroke-width="9" stroke-linecap="round"/><text x="180" y="303" text-anchor="middle" font-family="Verdana" font-size="18" font-weight="800" fill="#5a1932">kitchen survived</text></svg>
