<svg xmlns="http://www.w3.org/2000/svg" viewBox="0 0 520 520" role="img" aria-labelledby="t"><title id="t">White peacock cartoon</title><rect width="520" height="520" rx="36" fill="#eef2d7"/><g fill="#fffdf7" stroke="#9aa88c" stroke-width="5"><ellipse cx="260" cy="236" rx="44" ry="92"/><ellipse cx="183" cy="206" rx="38" ry="132" transform="rotate(-36 183 206)"/><ellipse cx="337" cy="206" rx="38" ry="132" transform="rotate(36 337 206)"/><ellipse cx="123" cy="235" rx="30" ry="112" transform="rotate(-60 123 235)"/><ellipse cx="397" cy="235" rx="30" ry="112" transform="rotate(60 397 235)"/></g><circle cx="260" cy="177" r="36" fill="#fffdf7" stroke="#9aa88c" stroke-width="5"/><path d="M260 140l-18-38m18 38l4-45m-4 45l26-34" stroke="#5a1932" stroke-width="6" stroke-linecap="round"/><circle cx="248" cy="171" r="5" fill="#5a1932"/><path d="M274 178l31 9-31 10z" fill="#c99735"/><path d="M230 337h60m-44 0l-19 38m47-38l19 38" stroke="#5a1932" stroke-width="8" stroke-linecap="round"/></svg>
