<svg xmlns="http://www.w3.org/2000/svg" viewBox="0 0 640 520" role="img" aria-labelledby="t">
  <title id="t">Cartoon birthday scrapbook</title>
  <rect width="640" height="520" rx="38" fill="#fff3d9"/>
  <path d="M52 422c88-72 183-63 248-14 73 56 169 49 286-20v84H52z" fill="#d9c093"/>
  <circle cx="493" cy="105" r="55" fill="#f8d77a"/>
  <path d="M120 120h168v238H120z" fill="#fffdf7" stroke="#5a1932" stroke-opacity=".18" stroke-width="5" transform="rotate(-5 204 239)"/>
  <path d="M370 155h148v188H370z" fill="#fffdf7" stroke="#5a1932" stroke-opacity=".18" stroke-width="5" transform="rotate(6 444 249)"/>
  <g transform="translate(158 194)">
    <path d="M20 116h150v32H20z" fill="#8f1d2c"/>
    <path d="M34 78h122v42H34z" fill="#d84b55"/>
    <path d="M51 42h88v40H51z" fill="#f7e8df"/>
    <path d="M62 21h9v24h-9zm56 0h9v24h-9z" fill="#5a1932"/>
    <path d="M61 18c9-19 19-19 24 0-8 8-16 8-24 0zm57 0c9-19 19-19 24 0-8 8-16 8-24 0z" fill="#f8d77a"/>
  </g>
  <g fill="none" stroke="#5a1932" stroke-width="7" stroke-linecap="round">
    <path d="M417 252c34-20 61-12 78 21"/>
    <path d="M430 217c20-32 44-32 67 0"/>
  </g>
  <g fill="#b95e5d">
    <circle cx="88" cy="80" r="9"/><circle cx="548" cy="390" r="10"/><circle cx="317" cy="81" r="7"/>
  </g>
  <path d="M88 315c38 23 65 20 104-12" fill="none" stroke="#6e8062" stroke-width="9" stroke-linecap="round"/>
  <text x="320" y="470" text-anchor="middle" font-family="Verdana" font-size="30" font-weight="800" fill="#5a1932">HAPPY BIRTHDAY</text>
</svg>
