<svg xmlns="http://www.w3.org/2000/svg" viewBox="0 0 360 320" role="img" aria-labelledby="title">
  <title id="title">Cartoon classical dancer</title>
  <rect width="360" height="320" rx="28" fill="#fff3d9"/>
  <circle cx="180" cy="48" r="18" fill="#c99735"/>
  <path d="M151 69c18-26 42-26 60 0 12 19 3 50-30 50s-43-31-30-50z" fill="#5a1932"/>
  <circle cx="181" cy="89" r="31" fill="#9b6045"/>
  <path d="M145 91c25-28 48-36 72-8-19-39-55-45-72 8z" fill="#2d1b1e"/>
  <circle cx="169" cy="89" r="4" fill="#2d1b1e"/>
  <circle cx="192" cy="89" r="4" fill="#2d1b1e"/>
  <path d="M170 108c9 8 19 8 29 0" fill="none" stroke="#2d1b1e" stroke-width="5" stroke-linecap="round"/>
  <path d="M180 119c-26 7-46 28-54 65h108c-8-37-28-58-54-65z" fill="#b95e5d"/>
  <path d="M136 151h88l-18 40h-52z" fill="#c99735" opacity=".9"/>
  <path d="M126 184c29 20 78 20 108 0l34 62H92z" fill="#8f1d2c"/>
  <path d="M114 162c-28 0-50 17-66 45m198-45c30 2 52 20 66 47" fill="none" stroke="#9b6045" stroke-width="13" stroke-linecap="round"/>
  <path d="M82 198c-9-8-18-8-26 1m224 0c10-8 19-8 27 1" fill="none" stroke="#c99735" stroke-width="8" stroke-linecap="round"/>
  <path d="M149 238l-26 42m88-42l27 42" fill="none" stroke="#5a1932" stroke-width="13" stroke-linecap="round"/>
  <path d="M128 279h50m54 0h50" stroke="#c99735" stroke-width="9" stroke-linecap="round"/>
  <g fill="#f6d36b">
    <circle cx="111" cy="151" r="7"/>
    <circle cx="249" cy="151" r="7"/>
    <circle cx="180" cy="126" r="6"/>
    <circle cx="154" cy="194" r="5"/>
    <circle cx="206" cy="194" r="5"/>
  </g>
  <path d="M74 67c16 12 32 12 49 0m114 0c17 12 34 12 51 0" fill="none" stroke="#6e8062" stroke-width="8" stroke-linecap="round"/>
  <text x="180" y="306" text-anchor="middle" font-family="Verdana" font-size="18" font-weight="800" fill="#5a1932">classical dancer</text>
</svg>
