<svg xmlns="http://www.w3.org/2000/svg" viewBox="0 0 520 520" role="img" aria-labelledby="t"><title id="t">Budgerigar birds cartoon</title><rect width="520" height="520" rx="36" fill="#eef2d7"/><path d="M90 365c116 29 231 29 340 0" fill="none" stroke="#6e8062" stroke-width="13" stroke-linecap="round"/><g transform="translate(120 118)"><ellipse cx="92" cy="120" rx="58" ry="86" fill="#7fca55"/><circle cx="86" cy="58" r="45" fill="#f6d36b"/><path d="M54 64c28 9 56 9 84 0M57 86c23 8 45 8 68 0" stroke="#5a1932" stroke-width="5" stroke-linecap="round"/><circle cx="76" cy="54" r="5" fill="#5a1932"/><path d="M101 63l27 10-27 12z" fill="#c99735"/><path d="M80 201l-12 47m39-47l12 47" stroke="#5a1932" stroke-width="7" stroke-linecap="round"/></g><g transform="translate(258 130)"><ellipse cx="92" cy="120" rx="58" ry="86" fill="#61b7d8"/><circle cx="86" cy="58" r="45" fill="#fffdf7"/><path d="M54 64c28 9 56 9 84 0M57 86c23 8 45 8 68 0" stroke="#5a1932" stroke-width="5" stroke-linecap="round"/><circle cx="76" cy="54" r="5" fill="#5a1932"/><path d="M101 63l27 10-27 12z" fill="#c99735"/><path d="M80 201l-12 47m39-47l12 47" stroke="#5a1932" stroke-width="7" stroke-linecap="round"/></g></svg>
