<svg xmlns="http://www.w3.org/2000/svg" viewBox="0 0 900 620" role="img" aria-labelledby="title">
  <title id="title">Glowing fantasy castle for Andi</title>
  <defs>
    <linearGradient id="stone" x1="0" x2="1" y1="0" y2="1">
      <stop offset="0" stop-color="#f8fbff"/>
      <stop offset=".42" stop-color="#9be8ff"/>
      <stop offset="1" stop-color="#ff94d6"/>
    </linearGradient>
    <linearGradient id="gold" x1="0" x2="1">
      <stop offset="0" stop-color="#fff7c7"/>
      <stop offset="1" stop-color="#ffbd57"/>
    </linearGradient>
    <filter id="glow"><feGaussianBlur stdDeviation="13" result="b"/><feMerge><feMergeNode in="b"/><feMergeNode in="SourceGraphic"/></feMerge></filter>
  </defs>
  <path d="M80 558c76-72 143-85 224-53s143 31 226-15 181-55 290 68z" fill="#081326" opacity=".72"/>
  <g filter="url(#glow)">
    <path d="M185 532V238l70-54 70 54v294zM575 532V238l70-54 70 54v294z" fill="url(#stone)"/>
    <path d="M300 532V178l150-95 150 95v354z" fill="url(#stone)"/>
    <path d="M260 190l-5-86 58 43 43-62 45 64 58-43-7 84zM570 190l-5-86 58 43 43-62 45 64 58-43-7 84zM300 176l-8-104 69 49 89-92 88 92 70-49-9 104z" fill="url(#gold)"/>
    <path d="M390 532V400c0-44 26-80 60-80s60 36 60 80v132z" fill="#07101a" opacity=".78"/>
    <path d="M230 300h52v72h-52zM618 300h52v72h-52zM384 220h52v76h-52zM464 220h52v76h-52z" fill="#fff7c7" opacity=".92"/>
  </g>
  <path d="M156 558h588" stroke="#ffe28a" stroke-width="10" stroke-linecap="round" opacity=".8"/>
</svg>
